<?xml version="1.0" encoding="UTF-8" standalone="no"?>
<!-- Created with Inkscape (http://www.inkscape.org/) -->

<svg
   xmlns:dc="http://purl.org/dc/elements/1.1/"
   xmlns:cc="http://creativecommons.org/ns#"
   xmlns:rdf="http://www.w3.org/1999/02/22-rdf-syntax-ns#"
   xmlns:svg="http://www.w3.org/2000/svg"
   xmlns="http://www.w3.org/2000/svg"
   xmlns:xlink="http://www.w3.org/1999/xlink"
   xmlns:sodipodi="http://sodipodi.sourceforge.net/DTD/sodipodi-0.dtd"
   xmlns:inkscape="http://www.inkscape.org/namespaces/inkscape"
   id="svg4173"
   version="1.1"
   inkscape:version="0.91 r13725"
   width="150"
   height="150"
   viewBox="0 0 150 150"
   sodipodi:docname="experiences.svg">
  <metadata
     id="metadata4179">
    <rdf:RDF>
      <cc:Work
         rdf:about="">
        <dc:format>image/svg+xml</dc:format>
        <dc:type
           rdf:resource="http://purl.org/dc/dcmitype/StillImage" />
        <dc:title></dc:title>
      </cc:Work>
    </rdf:RDF>
  </metadata>
  <defs
     id="defs4177">
    <linearGradient
       inkscape:collect="always"
       id="linearGradient4754">
      <stop
         style="stop-color:#227daa;stop-opacity:1"
         offset="0"
         id="stop4756" />
      <stop
         style="stop-color:#51cdc7;stop-opacity:1"
         offset="1"
         id="stop4758" />
    </linearGradient>
    <linearGradient
       inkscape:collect="always"
       xlink:href="#linearGradient4754"
       id="linearGradient4760"
       x1="12.940274"
       y1="503.32275"
       x2="1001.9403"
       y2="503.32275"
       gradientUnits="userSpaceOnUse"
       gradientTransform="matrix(0.1496461,0,0,0.1496461,11.003812,-25.43864)" />
  </defs>
  <sodipodi:namedview
     pagecolor="#ffffff"
     bordercolor="#666666"
     borderopacity="1"
     objecttolerance="10"
     gridtolerance="10"
     guidetolerance="10"
     inkscape:pageopacity="0"
     inkscape:pageshadow="2"
     inkscape:window-width="1920"
     inkscape:window-height="1057"
     id="namedview4175"
     showgrid="false"
     inkscape:zoom="6.0126742"
     inkscape:cx="86.940272"
     inkscape:cy="100.11835"
     inkscape:window-x="-8"
     inkscape:window-y="-8"
     inkscape:window-maximized="1"
     inkscape:current-layer="svg4173" />
  <g
     id="g4776"
     transform="translate(-11.940272,25.118354)">
    <path
       style="fill:url(#linearGradient4760);fill-opacity:1"
       d="m 79.60761,123.81464 c -0.534984,-0.0542 -1.126178,-0.18489 -1.313762,-0.29042 -0.196209,-0.11038 -1.117791,-0.22787 -2.169869,-0.27663 -1.279819,-0.0593 -1.940896,-0.15514 -2.202208,-0.3192 -0.224628,-0.14102 -0.927982,-0.27636 -1.765323,-0.33969 -0.940549,-0.0711 -1.477031,-0.1823 -1.654382,-0.3428 -0.16286,-0.14739 -0.685518,-0.27411 -1.377246,-0.33393 -0.702988,-0.0608 -1.179694,-0.1776 -1.290506,-0.31621 -0.0968,-0.1211 -0.600863,-0.27454 -1.122345,-0.34167 -1.038564,-0.13368 -1.470384,-0.26753 -1.470384,-0.45577 0,-0.0676 -0.371305,-0.16926 -0.825122,-0.22596 -0.453817,-0.0567 -0.975707,-0.22012 -1.159757,-0.36317 -0.18405,-0.14304 -0.664674,-0.29639 -1.068056,-0.34078 -0.438244,-0.0482 -0.785564,-0.17387 -0.86298,-0.31221 -0.07126,-0.12733 -0.432481,-0.27694 -0.802715,-0.33246 -0.370235,-0.0555 -0.724937,-0.19347 -0.788227,-0.30657 -0.06329,-0.11309 -0.435072,-0.2654 -0.826184,-0.33847 -0.391112,-0.0731 -0.826531,-0.2364 -0.9676,-0.36297 -0.141068,-0.12656 -0.510839,-0.27732 -0.821715,-0.33502 -0.32026,-0.0594 -0.630609,-0.22706 -0.716084,-0.38677 -0.09498,-0.17748 -0.31303,-0.28188 -0.5887,-0.28188 -0.240814,0 -0.558313,-0.12684 -0.705553,-0.28186 -0.147241,-0.15503 -0.491119,-0.32973 -0.764172,-0.38823 -0.273054,-0.0585 -0.530161,-0.19418 -0.571349,-0.30152 -0.04119,-0.10734 -0.365779,-0.2684 -0.721312,-0.35793 -0.355533,-0.0895 -0.681869,-0.25514 -0.725193,-0.36804 -0.04332,-0.11289 -0.297411,-0.24899 -0.564643,-0.30244 -0.267231,-0.0534 -0.57987,-0.23137 -0.694755,-0.39539 -0.114883,-0.16402 -0.330661,-0.29822 -0.479506,-0.29822 -0.148844,0 -0.431223,-0.12542 -0.62751,-0.27871 -0.196286,-0.15329 -0.508401,-0.32618 -0.693588,-0.3842 -0.185187,-0.058 -0.336704,-0.16098 -0.336704,-0.2288 0,-0.0678 -0.269363,-0.23109 -0.598584,-0.36282 -0.329222,-0.13173 -0.598585,-0.30649 -0.598585,-0.38836 0,-0.0819 -0.238052,-0.24831 -0.529005,-0.36988 -0.290954,-0.12157 -0.632467,-0.32449 -0.758919,-0.45095 -0.126453,-0.12645 -0.323746,-0.22991 -0.438429,-0.22991 -0.114684,0 -0.280596,-0.13468 -0.368692,-0.29929 -0.0881,-0.16461 -0.253652,-0.2993 -0.367899,-0.2993 -0.114247,0 -0.407798,-0.16835 -0.652333,-0.37411 -0.244537,-0.20576 -0.515719,-0.37412 -0.602631,-0.37412 -0.08691,0 -0.217316,-0.10595 -0.289789,-0.23546 -0.07248,-0.1295 -0.268216,-0.31469 -0.434978,-0.41152 -0.666057,-0.38677 -1.497308,-0.98558 -2.034708,-1.46576 -0.311501,-0.27834 -0.715545,-0.62253 -0.897877,-0.76488 -1.140939,-0.89077 -2.465421,-1.98559 -2.69427,-2.22711 -0.14724,-0.15539 -0.32789,-0.28253 -0.401442,-0.28253 -0.07355,0 -0.176478,-0.13468 -0.228724,-0.29929 -0.05225,-0.16461 -0.158364,-0.29929 -0.235821,-0.29929 -0.183953,0 -4.478031,-4.29408 -4.478031,-4.47803 0,-0.07746 -0.134682,-0.183576 -0.299292,-0.235822 -0.164611,-0.05225 -0.299293,-0.155171 -0.299293,-0.228724 0,-0.07355 -0.127136,-0.254202 -0.282527,-0.401442 -0.241514,-0.228849 -1.336341,-1.553331 -2.227103,-2.69427 -0.142353,-0.182332 -0.486549,-0.586376 -0.764881,-0.897877 -0.480181,-0.5374 -1.078994,-1.368651 -1.465759,-2.034708 -0.09684,-0.166762 -0.282022,-0.362503 -0.411527,-0.434978 -0.129504,-0.07247 -0.235462,-0.202879 -0.235462,-0.289789 0,-0.08691 -0.168352,-0.358094 -0.374115,-0.602631 -0.205763,-0.244535 -0.374115,-0.538086 -0.374115,-0.652333 0,-0.114247 -0.134682,-0.279802 -0.299292,-0.367899 -0.164611,-0.0881 -0.299292,-0.254008 -0.299292,-0.368692 0,-0.114683 -0.103462,-0.311976 -0.229914,-0.438429 -0.126453,-0.126452 -0.329379,-0.467965 -0.450947,-0.758919 -0.121568,-0.290953 -0.288015,-0.529005 -0.369882,-0.529005 -0.08187,0 -0.256627,-0.269363 -0.388356,-0.598585 -0.131728,-0.329221 -0.294997,-0.598584 -0.362819,-0.598584 -0.06782,0 -0.170785,-0.151517 -0.228806,-0.336704 -0.05802,-0.185187 -0.230911,-0.497302 -0.384199,-0.693589 -0.153289,-0.196286 -0.278707,-0.478665 -0.278707,-0.627509 0,-0.148846 -0.134198,-0.364623 -0.298219,-0.479507 -0.16402,-0.114884 -0.341947,-0.427523 -0.395393,-0.694754 -0.05345,-0.267232 -0.189546,-0.521321 -0.302444,-0.564643 -0.112897,-0.04332 -0.278515,-0.36966 -0.368039,-0.725193 -0.08952,-0.355533 -0.250592,-0.680123 -0.357927,-0.721312 -0.107335,-0.04119 -0.24302,-0.298295 -0.301521,-0.571349 -0.0585,-0.273053 -0.233203,-0.616931 -0.388227,-0.764172 -0.155023,-0.14724 -0.28186,-0.464739 -0.28186,-0.705553 0,-0.27567 -0.104405,-0.49372 -0.281877,-0.5887 -0.159712,-0.08548 -0.327341,-0.395825 -0.386778,-0.716084 -0.05769,-0.310876 -0.208454,-0.680647 -0.335019,-0.821715 -0.126566,-0.141069 -0.289903,-0.576488 -0.36297,-0.9676 -0.07307,-0.391112 -0.22538,-0.762894 -0.338472,-0.826184 -0.113092,-0.06329 -0.251048,-0.417992 -0.306568,-0.788227 -0.05552,-0.370235 -0.205126,-0.731456 -0.332457,-0.802715 -0.138337,-0.07742 -0.263991,-0.424736 -0.312212,-0.86298 -0.04439,-0.403382 -0.197735,-0.884006 -0.340779,-1.068056 -0.143044,-0.18405 -0.306471,-0.705941 -0.363172,-1.159757 -0.0567,-0.453817 -0.158383,-0.825122 -0.22596,-0.825122 -0.188234,0 -0.322085,-0.43182 -0.455771,-1.470384 -0.06713,-0.521482 -0.220572,-1.025541 -0.341663,-1.122345 -0.138614,-0.110812 -0.255421,-0.587518 -0.316213,-1.290506 -0.05982,-0.691728 -0.186542,-1.214386 -0.333928,-1.377246 -0.160501,-0.177351 -0.271664,-0.713833 -0.3428,-1.654382 -0.06333,-0.837341 -0.198675,-1.540695 -0.339697,-1.765323 -0.16399,-0.261216 -0.259841,-0.921895 -0.319027,-2.198993 -0.06271,-1.353085 -0.154396,-1.953429 -0.354248,-2.319514 -0.250242,-0.458392 -0.26964,-1.069901 -0.26964,-8.499991 0,-7.430091 0.0194,-8.0416 0.26964,-8.499992 0.199852,-0.366085 0.291539,-0.966429 0.354248,-2.319514 0.05919,-1.277098 0.155037,-1.937777 0.319027,-2.198993 0.141022,-0.224628 0.276366,-0.927982 0.339697,-1.765323 0.07114,-0.940549 0.182299,-1.47703 0.3428,-1.654382 0.147386,-0.16286 0.27411,-0.685518 0.333928,-1.377245 0.06079,-0.702988 0.177599,-1.179695 0.316213,-1.290507 0.121091,-0.0968 0.274536,-0.600863 0.341663,-1.122345 0.133686,-1.038564 0.267537,-1.470384 0.455771,-1.470384 0.06758,0 0.169259,-0.371305 0.22596,-0.825122 0.0567,-0.453816 0.220128,-0.975707 0.363172,-1.159757 0.143044,-0.18405 0.296394,-0.664674 0.340779,-1.068056 0.04822,-0.438244 0.173875,-0.785564 0.312212,-0.86298 0.127331,-0.07126 0.276937,-0.43248 0.332457,-0.802715 0.05552,-0.370235 0.193476,-0.724937 0.306568,-0.788227 0.113092,-0.06329 0.265404,-0.435072 0.338472,-0.826184 0.07307,-0.391112 0.236404,-0.826531 0.36297,-0.9676 0.126565,-0.141068 0.277324,-0.510839 0.335019,-0.821715 0.05944,-0.320259 0.227066,-0.630609 0.386778,-0.716084 0.177472,-0.09498 0.281877,-0.31303 0.281877,-0.5887 0,-0.240814 0.126837,-0.558313 0.28186,-0.705553 0.155024,-0.147241 0.329725,-0.491119 0.388227,-0.764172 0.0585,-0.273054 0.194186,-0.530161 0.301521,-0.571349 0.107335,-0.04119 0.268402,-0.365779 0.357927,-0.721312 0.08952,-0.355533 0.255142,-0.681869 0.368039,-0.725193 0.112898,-0.04332 0.248998,-0.297411 0.302444,-0.564643 0.05345,-0.26723 0.231373,-0.57987 0.395393,-0.694754 0.164021,-0.114884 0.298219,-0.330661 0.298219,-0.479507 0,-0.148844 0.125418,-0.431223 0.278707,-0.627509 0.153288,-0.196287 0.326178,-0.508402 0.384199,-0.693589 0.05802,-0.185187 0.160984,-0.336704 0.228806,-0.336704 0.06782,0 0.231091,-0.269363 0.362819,-0.598584 0.131729,-0.329222 0.306489,-0.598585 0.388356,-0.598585 0.08187,0 0.248314,-0.238052 0.369882,-0.529005 0.121568,-0.2909536 0.324494,-0.6324669 0.450947,-0.7589194 0.126452,-0.1264524 0.229914,-0.3237458 0.229914,-0.4384286 0,-0.1146843 0.134681,-0.2805954 0.299292,-0.3686921 0.16461,-0.088097 0.299292,-0.2536516 0.299292,-0.3678989 0,-0.1142474 0.168352,-0.4077976 0.374115,-0.6523328 0.205763,-0.2445367 0.374115,-0.5157194 0.374115,-0.6026309 0,-0.08691 0.105958,-0.217316 0.235462,-0.2897896 0.129505,-0.072475 0.314692,-0.2682152 0.411527,-0.4349778 0.386765,-0.6660569 0.985578,-1.497308 1.465759,-2.0347081 0.278332,-0.3115004 0.622528,-0.7155448 0.764881,-0.8978766 0.890762,-1.1409393 1.985589,-2.46542103 2.227103,-2.69427032 0.155391,-0.14723979 0.282527,-0.32788957 0.282527,-0.40144213 0,-0.0735526 0.134682,-0.17647764 0.299293,-0.22872358 0.16461,-0.05224595 0.299292,-0.15836449 0.299292,-0.23582131 0,-0.18395247 4.294078,-4.47803086 4.478031,-4.47803086 0.07746,0 0.183575,-0.1346815 0.235821,-0.2992922 0.05225,-0.1646107 0.155171,-0.2992922 0.228724,-0.2992922 0.07355,0 0.254202,-0.1271363 0.401442,-0.2825273 0.228849,-0.2415139 1.553331,-1.3363412 2.69427,-2.2271036 0.182332,-0.1423524 0.586376,-0.4865489 0.897877,-0.7648802 0.5374,-0.4801814 1.368651,-1.0789947 2.034708,-1.4657595 0.166762,-0.09684 0.362502,-0.282022 0.434978,-0.411526 0.07247,-0.129504 0.202879,-0.235462 0.289789,-0.235462 0.08691,0 0.358094,-0.168352 0.602631,-0.374116 0.244535,-0.205763 0.538086,-0.374115 0.652333,-0.374115 0.114247,0 0.279802,-0.134681 0.367899,-0.299292 0.0881,-0.164611 0.254008,-0.299292 0.368692,-0.299292 0.114683,0 0.311976,-0.103462 0.438429,-0.229914 0.126452,-0.126453 0.467965,-0.329379 0.758919,-0.450947 0.290953,-0.121568 0.529005,-0.288015 0.529005,-0.369882 0,-0.08187 0.269363,-0.256627 0.598585,-0.388355 0.329221,-0.131729 0.598584,-0.294997 0.598584,-0.36282 0,-0.06782 0.151517,-0.170785 0.336704,-0.228806 0.185187,-0.05802 0.497302,-0.230911 0.693588,-0.384199 0.196287,-0.153289 0.478666,-0.278707 0.62751,-0.278707 0.148845,0 0.364623,-0.134198 0.479506,-0.298219 0.114885,-0.16402 0.427524,-0.341947 0.694755,-0.395393 0.267232,-0.05345 0.521321,-0.189546 0.564643,-0.302443 0.04332,-0.112898 0.36966,-0.278516 0.725193,-0.36804 0.355533,-0.08952 0.680123,-0.250591 0.721312,-0.357927 0.04119,-0.107335 0.298295,-0.24302 0.571349,-0.301521 0.273053,-0.0585 0.616931,-0.233203 0.764172,-0.388227 0.14724,-0.155023 0.464739,-0.28186 0.705553,-0.28186 0.27567,0 0.49372,-0.104405 0.5887,-0.281877 0.08547,-0.159712 0.395824,-0.327341 0.716084,-0.386777 0.310876,-0.05769 0.680647,-0.208454 0.821715,-0.33502 0.141069,-0.126566 0.576488,-0.289902 0.9676,-0.36297 0.391112,-0.07307 0.762894,-0.22538 0.826184,-0.338472 0.06329,-0.113092 0.417992,-0.251047 0.788227,-0.306568 0.370234,-0.05552 0.731456,-0.205126 0.802715,-0.332457 0.07742,-0.138337 0.424736,-0.263991 0.86298,-0.312212 0.403382,-0.04438 0.884006,-0.197735 1.068056,-0.340779 0.18405,-0.143044 0.70594,-0.306471 1.159757,-0.363172 0.453817,-0.0567 0.825122,-0.158383 0.825122,-0.22596 0,-0.188234 0.43182,-0.322085 1.470384,-0.455771 0.521482,-0.06713 1.025541,-0.220572 1.122345,-0.341663 0.110812,-0.138614 0.587518,-0.255421 1.290506,-0.316213 0.691728,-0.05982 1.214386,-0.186542 1.377246,-0.333928 0.177351,-0.160501 0.713833,-0.271664 1.654382,-0.3428 0.837341,-0.06333 1.540695,-0.198675 1.765323,-0.339697 0.261216,-0.16399 0.921895,-0.25984 2.198993,-0.319027 1.353085,-0.06271 1.953429,-0.154396 2.319514,-0.354247 0.458392,-0.250243 1.069901,-0.269641 8.499991,-0.269641 7.430091,0 8.0416,0.0194 8.499992,0.269641 0.366085,0.199851 0.966429,0.291538 2.319514,0.354247 1.277098,0.05919 1.937777,0.155037 2.198993,0.319027 0.224632,0.141022 0.927982,0.276366 1.765322,0.339697 0.94055,0.07114 1.47703,0.182299 1.65438,0.3428 0.16286,0.147386 0.68552,0.27411 1.37725,0.333928 0.70299,0.06079 1.17969,0.177599 1.2905,0.316213 0.0968,0.121091 0.60087,0.274536 1.12235,0.341663 1.03856,0.133686 1.47038,0.267537 1.47038,0.455771 0,0.06758 0.37131,0.169259 0.82513,0.22596 0.45381,0.0567 0.9757,0.220128 1.15975,0.363172 0.18405,0.143044 0.66468,0.296395 1.06806,0.340779 0.43824,0.04822 0.78556,0.173875 0.86298,0.312212 0.0713,0.127331 0.43248,0.276937 0.80271,0.332457 0.37024,0.05552 0.72494,0.193476 0.78823,0.306568 0.0633,0.113092 0.43507,0.265405 0.82618,0.338472 0.39112,0.07307 0.82654,0.236404 0.9676,0.36297 0.14107,0.126566 0.51084,0.277325 0.82172,0.33502 0.32026,0.05944 0.63061,0.227065 0.71608,0.386777 0.095,0.177472 0.31303,0.281877 0.5887,0.281877 0.24082,0 0.55832,0.126837 0.70556,0.28186 0.14724,0.155024 0.49112,0.329726 0.76417,0.388227 0.27305,0.0585 0.53016,0.194186 0.57135,0.301521 0.0412,0.107336 0.36578,0.268402 0.72131,0.357927 0.35553,0.08952 0.68187,0.255142 0.72519,0.36804 0.0433,0.112897 0.29741,0.248997 0.56465,0.302443 0.26723,0.05345 0.57987,0.231373 0.69475,0.395393 0.11488,0.164021 0.33066,0.298219 0.47951,0.298219 0.14884,0 0.43122,0.125418 0.62751,0.278707 0.19628,0.153288 0.5084,0.326178 0.69359,0.384199 0.18518,0.05802 0.3367,0.160984 0.3367,0.228806 0,0.06782 0.26936,0.231091 0.59858,0.36282 0.32922,0.131728 0.59859,0.306488 0.59859,0.388355 0,0.08187 0.23805,0.248314 0.529,0.369882 0.29096,0.121568 0.63247,0.324494 0.75892,0.450947 0.12645,0.126452 0.32375,0.229914 0.43843,0.229914 0.11469,0 0.2806,0.134681 0.36869,0.299292 0.0881,0.164611 0.25365,0.299292 0.3679,0.299292 0.11425,0 0.4078,0.168352 0.65233,0.374115 0.24454,0.205764 0.51572,0.374116 0.60264,0.374116 0.0869,0 0.21731,0.105958 0.28979,0.235462 0.0725,0.129504 0.26821,0.314691 0.43497,0.411526 0.66606,0.3867648 1.49731,0.9855781 2.03471,1.4657595 0.3115,0.2783313 0.71555,0.6225278 0.89788,0.7648802 1.14094,0.8907624 2.46542,1.9855897 2.69427,2.2271036 0.14724,0.155391 0.32789,0.2825273 0.40144,0.2825273 0.0736,0 0.17648,0.1346815 0.22872,0.2992922 0.0522,0.1646107 0.15837,0.2992922 0.23583,0.2992922 0.18395,0 4.47803,4.29407839 4.47803,4.47803086 0,0.0774568 0.13468,0.18357536 0.29929,0.23582131 0.16461,0.05224594 0.29929,0.15517103 0.29929,0.22872358 0,0.0735526 0.12714,0.25420234 0.28253,0.40144213 0.24151,0.22884929 1.33634,1.55333102 2.2271,2.69427032 0.14235,0.1823318 0.48655,0.5863762 0.76488,0.8978766 0.48018,0.5374001 1.079,1.3686512 1.46576,2.0347081 0.0968,0.1667626 0.28202,0.3625027 0.41153,0.4349778 0.1295,0.072474 0.23546,0.2028797 0.23546,0.2897896 0,0.086912 0.16835,0.3580942 0.37412,0.6026309 0.20576,0.2445352 0.37411,0.5380854 0.37411,0.6523328 0,0.1142473 0.13468,0.2798023 0.29929,0.3678989 0.16461,0.088097 0.29929,0.2540078 0.29929,0.3686921 0,0.1146828 0.10347,0.3119762 0.22992,0.4384286 0.12645,0.1264525 0.32938,0.4679658 0.45094,0.7589194 0.12157,0.290953 0.28802,0.529005 0.36989,0.529005 0.0819,0 0.25662,0.269363 0.38835,0.598585 0.13173,0.329221 0.295,0.598584 0.36282,0.598584 0.0678,0 0.17079,0.151517 0.22881,0.336704 0.058,0.185187 0.23091,0.497302 0.3842,0.693589 0.15329,0.196286 0.2787,0.478665 0.2787,0.627509 0,0.148846 0.1342,0.364623 0.29822,0.479507 0.16402,0.114884 0.34195,0.427524 0.3954,0.694754 0.0534,0.267232 0.18954,0.521321 0.30244,0.564643 0.1129,0.04332 0.27852,0.36966 0.36804,0.725193 0.0895,0.355533 0.25059,0.680123 0.35793,0.721312 0.10733,0.04119 0.24302,0.298295 0.30152,0.571349 0.0585,0.273053 0.2332,0.616931 0.38822,0.764172 0.15503,0.14724 0.28186,0.464739 0.28186,0.705553 0,0.27567 0.10441,0.49372 0.28188,0.5887 0.15971,0.08548 0.32734,0.395825 0.38678,0.716084 0.0577,0.310876 0.20845,0.680647 0.33502,0.821715 0.12656,0.141069 0.2899,0.576488 0.36297,0.9676 0.0731,0.391112 0.22538,0.762894 0.33847,0.826184 0.11309,0.06329 0.25105,0.417992 0.30657,0.788227 0.0555,0.370235 0.20512,0.731456 0.33246,0.802715 0.13833,0.07742 0.26399,0.424736 0.31221,0.86298 0.0444,0.403382 0.19773,0.884006 0.34078,1.068056 0.14304,0.18405 0.30647,0.705941 0.36317,1.159757 0.0567,0.453817 0.15838,0.825122 0.22596,0.825122 0.18823,0 0.32208,0.43182 0.45577,1.470384 0.0671,0.521482 0.22057,1.025541 0.34166,1.122345 0.13862,0.110812 0.25542,0.587519 0.31622,1.290507 0.0598,0.691727 0.18654,1.214385 0.33392,1.377245 0.1605,0.177352 0.27167,0.713833 0.3428,1.654382 0.0633,0.837341 0.19868,1.540695 0.3397,1.765323 0.16399,0.261216 0.25984,0.921895 0.31903,2.198993 0.0627,1.353085 0.15439,1.953429 0.35424,2.319514 0.25026,0.458392 0.26965,1.069901 0.26965,8.499992 0,7.43009 -0.0194,8.041599 -0.26965,8.499991 -0.19985,0.366085 -0.29153,0.966429 -0.35424,2.319514 -0.0592,1.277098 -0.15504,1.937777 -0.31903,2.198993 -0.14102,0.224628 -0.27637,0.927982 -0.3397,1.765323 -0.0711,0.940549 -0.1823,1.477031 -0.3428,1.654382 -0.14738,0.16286 -0.27411,0.685518 -0.33392,1.377246 -0.0608,0.702988 -0.1776,1.179694 -0.31622,1.290506 -0.12109,0.0968 -0.27453,0.600863 -0.34166,1.122345 -0.13369,1.038564 -0.26754,1.470384 -0.45577,1.470384 -0.0676,0 -0.16926,0.371305 -0.22596,0.825122 -0.0567,0.453816 -0.22013,0.975707 -0.36317,1.159757 -0.14305,0.18405 -0.2964,0.664674 -0.34078,1.068056 -0.0482,0.438244 -0.17388,0.785564 -0.31221,0.86298 -0.12734,0.07126 -0.27694,0.43248 -0.33246,0.802715 -0.0555,0.370235 -0.19348,0.724937 -0.30657,0.788227 -0.11309,0.06329 -0.2654,0.435072 -0.33847,0.826184 -0.0731,0.391112 -0.23641,0.826531 -0.36297,0.9676 -0.12657,0.141068 -0.27733,0.510839 -0.33502,0.821715 -0.0594,0.320259 -0.22707,0.630609 -0.38678,0.716084 -0.17747,0.09498 -0.28188,0.31303 -0.28188,0.5887 0,0.240814 -0.12683,0.558313 -0.28186,0.705553 -0.15502,0.147241 -0.32972,0.491119 -0.38822,0.764172 -0.0585,0.273054 -0.19419,0.530161 -0.30152,0.571349 -0.10734,0.04119 -0.26841,0.365779 -0.35793,0.721312 -0.0895,0.355533 -0.25514,0.681869 -0.36804,0.725193 -0.1129,0.04332 -0.249,0.297411 -0.30244,0.564643 -0.0534,0.267231 -0.23138,0.57987 -0.3954,0.694754 -0.16402,0.114884 -0.29822,0.330661 -0.29822,0.479507 0,0.148844 -0.12541,0.431223 -0.2787,0.627509 -0.15329,0.196287 -0.32618,0.508402 -0.3842,0.693589 -0.058,0.185187 -0.16099,0.336704 -0.22881,0.336704 -0.0678,0 -0.23109,0.269363 -0.36282,0.598584 -0.13173,0.329222 -0.30649,0.598585 -0.38835,0.598585 -0.0819,0 -0.24832,0.238052 -0.36989,0.529005 -0.12156,0.290954 -0.32449,0.632467 -0.45094,0.758919 -0.12645,0.126453 -0.22992,0.323746 -0.22992,0.438429 0,0.114684 -0.13468,0.280595 -0.29929,0.368692 -0.16461,0.0881 -0.29929,0.253652 -0.29929,0.367899 0,0.114247 -0.16835,0.407798 -0.37411,0.652333 -0.20577,0.244537 -0.37412,0.515719 -0.37412,0.602631 0,0.08691 -0.10596,0.217316 -0.23546,0.289789 -0.12951,0.07248 -0.31469,0.268216 -0.41153,0.434978 -0.38676,0.666057 -0.98558,1.497308 -1.46576,2.034708 -0.27833,0.311501 -0.62253,0.715545 -0.76488,0.897877 -0.89076,1.140939 -1.98559,2.465421 -2.2271,2.69427 -0.15539,0.14724 -0.28253,0.32789 -0.28253,0.401442 0,0.07355 -0.13468,0.176478 -0.29929,0.228724 -0.16461,0.05225 -0.29929,0.158364 -0.29929,0.235822 0,0.18395 -4.29408,4.47803 -4.47803,4.47803 -0.0775,0 -0.18358,0.13468 -0.23583,0.29929 -0.0522,0.16461 -0.15517,0.29929 -0.22872,0.29929 -0.0735,0 -0.2542,0.12714 -0.40144,0.28253 -0.22885,0.24152 -1.55333,1.33634 -2.69427,2.22711 -0.18233,0.14235 -0.58638,0.48654 -0.89788,0.76488 -0.5374,0.48018 -1.36865,1.07899 -2.03471,1.46576 -0.16676,0.0968 -0.3625,0.28202 -0.43497,0.41152 -0.0725,0.12951 -0.20288,0.23546 -0.28979,0.23546 -0.0869,0 -0.3581,0.16836 -0.60264,0.37412 -0.24453,0.20576 -0.53808,0.37411 -0.65233,0.37411 -0.11425,0 -0.2798,0.13469 -0.3679,0.2993 -0.0881,0.16461 -0.254,0.29929 -0.36869,0.29929 -0.11468,0 -0.31198,0.10346 -0.43843,0.22991 -0.12645,0.12646 -0.46796,0.32938 -0.75892,0.45095 -0.29095,0.12157 -0.529,0.28801 -0.529,0.36988 0,0.0819 -0.26937,0.25663 -0.59859,0.38836 -0.32922,0.13173 -0.59858,0.29499 -0.59858,0.36282 0,0.0678 -0.15152,0.17078 -0.3367,0.2288 -0.18519,0.058 -0.49731,0.23091 -0.69359,0.3842 -0.19629,0.15329 -0.47867,0.27871 -0.62751,0.27871 -0.14885,0 -0.36463,0.1342 -0.47951,0.29822 -0.11488,0.16402 -0.42752,0.34194 -0.69475,0.39539 -0.26724,0.0534 -0.52132,0.18955 -0.56465,0.30244 -0.0433,0.1129 -0.36966,0.27852 -0.72519,0.36804 -0.35553,0.0895 -0.68012,0.25059 -0.72131,0.35793 -0.0412,0.10734 -0.2983,0.24302 -0.57135,0.30152 -0.27305,0.0585 -0.61693,0.2332 -0.76417,0.38823 -0.14724,0.15502 -0.46474,0.28186 -0.70556,0.28186 -0.27567,0 -0.49372,0.1044 -0.5887,0.28188 -0.0855,0.15971 -0.39582,0.32734 -0.71608,0.38677 -0.31088,0.0577 -0.68065,0.20846 -0.82172,0.33502 -0.14106,0.12657 -0.57648,0.28991 -0.9676,0.36297 -0.39111,0.0731 -0.76289,0.22538 -0.82618,0.33847 -0.0633,0.1131 -0.41799,0.25105 -0.78823,0.30657 -0.37023,0.0555 -0.73145,0.20513 -0.80271,0.33246 -0.0774,0.13834 -0.42474,0.26399 -0.86298,0.31221 -0.40338,0.0444 -0.88401,0.19774 -1.06806,0.34078 -0.18405,0.14305 -0.70594,0.30647 -1.15975,0.36317 -0.45382,0.0567 -0.82513,0.15839 -0.82513,0.22596 0,0.18824 -0.43182,0.32209 -1.47038,0.45577 -0.52148,0.0671 -1.02554,0.22057 -1.12235,0.34167 -0.11081,0.13861 -0.58751,0.25542 -1.2905,0.31621 -0.69173,0.0598 -1.21439,0.18654 -1.37725,0.33393 -0.17735,0.1605 -0.71383,0.27166 -1.65438,0.3428 -0.83734,0.0633 -1.54069,0.19867 -1.765322,0.33969 -0.261216,0.164 -0.921895,0.25985 -2.198993,0.31903 -1.340215,0.0621 -1.95691,0.15545 -2.319514,0.35106 -0.452146,0.2439 -1.101518,0.26849 -7.676938,0.29058 -3.950657,0.0133 -7.620728,-0.0202 -8.155713,-0.0744 z M 100.59,75.760089 c 0.64117,-0.43165 0.78254,-0.735758 0.64957,-1.397237 -0.0778,-0.387187 -0.23704,-0.541433 -0.87468,-0.847455 l -0.779525,-0.374115 -11.170368,0 c -10.116814,0 -11.196546,0.02303 -11.447926,0.244181 -0.152657,0.134299 -0.416913,0.286493 -0.587234,0.338209 -0.170321,0.05172 -0.452513,0.287227 -0.627094,0.52336 l -0.317417,0.42933 0.386916,0.467041 c 0.212804,0.256872 0.470956,0.46704 0.573671,0.46704 0.102714,0 0.224045,0.09717 0.269621,0.215944 0.05113,0.133243 0.358142,0.239204 0.801652,0.27668 0.395332,0.0334 5.634661,0.05407 11.642952,0.04594 l 10.924162,-0.0148 0.5557,-0.374116 z m 26.95428,0 c 0.48759,-0.463156 0.533,-1.212832 0.0997,-1.646107 -0.28267,-0.282665 -0.49882,-0.299292 -3.8908,-0.299292 -3.1254,0 -3.59151,0.02974 -3.59151,0.229165 0,0.126042 -0.10101,0.267927 -0.22447,0.315302 -0.57159,0.219341 -0.006,1.539134 0.74862,1.745983 0.1644,0.04508 1.68619,0.07006 3.38175,0.05552 3.0671,-0.02632 3.08485,-0.02836 3.47668,-0.400567 z m -8.31424,-30.004043 c 0.0226,-10.041254 0.004,-18.408341 -0.0403,-18.593528 l -0.0813,-0.336704 -31.709884,0 c -17.440435,0 -31.816402,0.04087 -31.946591,0.09083 -0.214085,0.08215 -0.236709,1.862865 -0.236709,18.631283 l 0,18.54045 31.986854,-0.03776 31.98685,-0.03776 0.041,-18.256824 z M 75.941281,55.601768 C 75.77667,55.560628 75.539593,55.436453 75.414443,55.325826 75.289292,55.215198 75.0536,55.070634 74.890682,55.004571 74.068339,54.671116 73.20273,53.848483 72.497606,52.730307 72.414301,52.598204 72.237447,52.321768 72.104594,52.116005 71.971743,51.910242 71.781383,51.213202 71.68157,50.56703 c -0.22207,-1.437677 0.01536,-3.547685 0.463652,-4.120347 0.153657,-0.196286 0.279376,-0.448243 0.279376,-0.559903 0,-0.111662 0.134681,-0.287131 0.299292,-0.389932 0.164611,-0.102801 0.299292,-0.248086 0.299292,-0.322855 0,-0.167888 0.986008,-1.138877 1.156494,-1.138877 0.06809,0 0.235044,-0.117847 0.371002,-0.261881 0.135958,-0.144034 0.352947,-0.348711 0.482196,-0.454839 0.129249,-0.106126 0.235,-0.420462 0.235,-0.698522 0,-0.278062 0.172773,-0.849553 0.383942,-1.269981 0.398755,-0.793901 1.477212,-1.953806 1.816614,-1.953806 0.107177,0 0.446152,-0.134682 0.753281,-0.299293 0.710134,-0.38061 1.463081,-0.38061 2.173215,0 0.307129,0.164611 0.654504,0.299293 0.771944,0.299293 0.117441,0 0.410155,0.165448 0.650473,0.367662 0.442915,0.372689 0.783189,0.297471 0.783189,-0.173123 0,-0.106997 0.06644,-0.194539 0.147638,-0.194539 0.0812,0 0.24135,-0.224283 0.355886,-0.498406 0.188796,-0.451853 1.627343,-2.045578 1.846404,-2.045578 0.05004,0 0.299361,-0.158662 0.554046,-0.352583 0.254685,-0.193922 0.631416,-0.403908 0.837179,-0.466638 0.205763,-0.06273 0.490164,-0.215913 0.632003,-0.340405 0.636505,-0.558663 5.909863,-0.554064 6.323444,0.0055 0.08401,0.113662 0.349026,0.255554 0.588928,0.315312 0.532354,0.132604 1.055313,0.521916 2.076376,1.545735 1.032576,1.035362 1.45306,1.546332 1.45306,1.765751 0,0.09932 0.129143,0.344762 0.286986,0.545425 0.157842,0.200665 0.335195,0.630625 0.394115,0.95547 0.05892,0.324844 0.19914,0.772468 0.311599,0.994721 0.112458,0.222253 0.204469,0.606808 0.204469,0.854565 0,0.247758 0.105751,0.537301 0.235,0.643427 0.129249,0.106128 0.346238,0.310805 0.482196,0.454839 0.135958,0.144034 0.302909,0.261881 0.371002,0.261881 0.170486,0 1.156497,0.970989 1.156497,1.138877 0,0.07477 0.13468,0.220054 0.29929,0.322855 0.16461,0.102801 0.29929,0.260121 0.29929,0.349599 0,0.08948 0.12612,0.341437 0.28027,0.559905 0.44947,0.637029 0.68288,2.735606 0.46276,4.160678 -0.0998,0.646172 -0.29017,1.343212 -0.42303,1.548975 -0.13285,0.205763 -0.3097,0.482199 -0.39301,0.614302 -0.70512,1.118176 -1.57073,1.940809 -2.393073,2.274264 -0.162918,0.06606 -0.422485,0.234415 -0.576815,0.374116 -0.258062,0.2336 -1.159799,0.255764 -11.226534,0.275942 -6.020265,0.01208 -11.080616,-0.01172 -11.245227,-0.05286 z"
       id="path4737"
       inkscape:connector-curvature="0" />
    <path
       style="fill:#000000;fill-opacity:0.63880597"
       d="m 43.356069,79.502259 c -0.308174,-0.16517 -0.688315,-0.30031 -0.844761,-0.30031 -0.668152,0 -2.559914,-2.0208 -2.559914,-2.734528 0,-0.202223 -0.134682,-0.538898 -0.299292,-0.748166 -0.281203,-0.357493 -0.299153,-0.60517 -0.297001,-4.098038 0.0012,-2.044652 0.05314,-3.797512 0.11528,-3.895244 0.262289,-0.412498 1.045364,-0.495712 4.664835,-0.495712 3.249912,0 3.726781,-0.02966 3.806234,-0.236709 0.04996,-0.130189 0.09108,-9.642069 0.09139,-21.137511 5.99e-4,-20.038813 0.01193,-20.919443 0.27619,-21.352781 0.151596,-0.248587 0.325476,-0.717681 0.3864,-1.04243 0.06092,-0.324748 0.23967,-0.680737 0.397217,-0.791088 0.157546,-0.11035 0.286448,-0.293291 0.286448,-0.406536 0,-0.113244 0.12741,-0.246337 0.283135,-0.295762 0.155725,-0.04942 0.317772,-0.222314 0.360106,-0.3842 0.04509,-0.172428 0.204552,-0.294336 0.385008,-0.294336 0.16942,0 0.378564,-0.131784 0.464766,-0.292853 0.09097,-0.169975 0.391426,-0.336548 0.716083,-0.396993 0.307646,-0.05728 0.813324,-0.236077 1.123732,-0.397334 0.556878,-0.289297 0.945531,-0.291747 29.255812,-0.184413 28.366113,0.107544 37.372773,0.222465 39.215973,0.500376 0.60532,0.09127 1.0679,0.256216 1.28164,0.457016 0.18395,0.17281 0.3895,0.314201 0.45678,0.314201 0.1158,0 0.64302,0.53912 1.39225,1.423666 0.18519,0.218632 0.33671,0.549707 0.33671,0.735722 0,0.186016 0.13445,0.459886 0.29878,0.608601 0.29558,0.2675 0.29918,0.497027 0.3367,21.459998 l 0.0379,21.189605 4.15833,0.07482 c 3.4768,0.06256 4.18155,0.111612 4.30003,0.299292 0.0797,0.126203 0.14272,1.935288 0.144,4.132498 0.002,3.683338 -0.0149,3.929906 -0.297,4.288518 -0.16461,0.209268 -0.29929,0.555053 -0.29929,0.768411 0,0.213358 -0.13468,0.522605 -0.29929,0.687216 -0.16461,0.16461 -0.29929,0.368877 -0.29929,0.453926 0,0.316712 -1.70758,1.790765 -2.07446,1.790765 -0.13931,0 -0.41979,0.117846 -0.62329,0.261881 -0.34999,0.247722 -2.68801,0.263958 -43.243927,0.30031 -42.673463,0.03825 -42.876544,0.03702 -43.434237,-0.261881 z m 57.170461,-3.587596 c 0.27072,-0.203052 0.61589,-0.564519 0.76705,-0.803257 0.26902,-0.424884 0.26819,-0.444081 -0.0391,-0.906947 -0.17269,-0.26008 -0.55153,-0.639363 -0.84188,-0.842848 l -0.5279,-0.369975 -11.721873,0 c -10.241902,0 -11.743966,0.02834 -11.896865,0.224469 -0.09625,0.123458 -0.365396,0.322815 -0.598109,0.443015 -0.232711,0.120201 -0.491405,0.346148 -0.574871,0.502108 -0.167387,0.312765 -0.03813,1.299569 0.170231,1.299569 0.07226,0 0.325202,0.163088 0.562093,0.362417 0.23689,0.19933 0.662936,0.391947 0.946769,0.428037 0.283834,0.03609 5.633958,0.05819 11.889165,0.04911 l 11.3731,-0.01651 0.49223,-0.369187 z m 26.53948,0.291142 c 0.59635,-0.165643 0.72219,-0.413173 0.7256,-1.427226 0.004,-1.207365 0.0711,-1.188359 -4.19017,-1.188359 l -3.7674,0 -0.35919,0.448939 c -0.48963,0.611986 -0.4707,1.263118 0.0509,1.749086 0.22634,0.210893 0.51254,0.420198 0.63599,0.465121 0.40645,0.147894 6.34798,0.106965 6.90431,-0.04756 z m -8.1314,-11.998395 c 0.23846,-0.238463 0.26267,-36.946705 0.0247,-37.391434 -0.15241,-0.284781 -0.66834,-0.289454 -31.954708,-0.289454 -29.020934,0 -31.832029,0.02112 -32.168646,0.24168 l -0.36885,0.24168 0,18.455597 0,18.455597 0.33259,0.232955 c 0.298487,0.209068 3.594384,0.232954 32.143982,0.232954 24.542662,0 31.852422,-0.04103 31.990972,-0.179575 z"
       id="path4733"
       inkscape:connector-curvature="0" />
  </g>
</svg>
