<?xml version="1.0" encoding="UTF-8" standalone="no"?>
<!-- Created with Inkscape (http://www.inkscape.org/) -->

<svg
   xmlns:dc="http://purl.org/dc/elements/1.1/"
   xmlns:cc="http://creativecommons.org/ns#"
   xmlns:rdf="http://www.w3.org/1999/02/22-rdf-syntax-ns#"
   xmlns:svg="http://www.w3.org/2000/svg"
   xmlns="http://www.w3.org/2000/svg"
   xmlns:xlink="http://www.w3.org/1999/xlink"
   xmlns:sodipodi="http://sodipodi.sourceforge.net/DTD/sodipodi-0.dtd"
   xmlns:inkscape="http://www.inkscape.org/namespaces/inkscape"
   width="150"
   height="150"
   viewBox="0 0 149.99999 149.99999"
   id="svg2"
   version="1.1"
   inkscape:version="0.91 r13725"
   sodipodi:docname="hobies.svg">
  <defs
     id="defs4">
    <linearGradient
       inkscape:collect="always"
       id="linearGradient4151">
      <stop
         style="stop-color:#227daa;stop-opacity:1"
         offset="0"
         id="stop4153" />
      <stop
         style="stop-color:#51cdc7;stop-opacity:1"
         offset="1"
         id="stop4155" />
    </linearGradient>
    <linearGradient
       inkscape:collect="always"
       xlink:href="#linearGradient4151"
       id="linearGradient4157"
       x1="157.27051"
       y1="532.61121"
       x2="586.82397"
       y2="532.61121"
       gradientUnits="userSpaceOnUse"
       gradientTransform="matrix(0.34914932,0,0,0.34914932,102.37046,486.42706)" />
  </defs>
  <sodipodi:namedview
     id="base"
     pagecolor="#ffffff"
     bordercolor="#666666"
     borderopacity="1.0"
     inkscape:pageopacity="0.0"
     inkscape:pageshadow="2"
     inkscape:zoom="3.1476326"
     inkscape:cx="176.98509"
     inkscape:cy="130.56817"
     inkscape:document-units="px"
     inkscape:current-layer="layer1"
     showgrid="false"
     fit-margin-top="0"
     fit-margin-left="0"
     fit-margin-right="0"
     fit-margin-bottom="0"
     units="px"
     inkscape:window-width="1920"
     inkscape:window-height="1057"
     inkscape:window-x="-8"
     inkscape:window-y="-8"
     inkscape:window-maximized="1" />
  <metadata
     id="metadata7">
    <rdf:RDF>
      <cc:Work
         rdf:about="">
        <dc:format>image/svg+xml</dc:format>
        <dc:type
           rdf:resource="http://purl.org/dc/dcmitype/StillImage" />
        <dc:title></dc:title>
      </cc:Work>
    </rdf:RDF>
  </metadata>
  <g
     inkscape:label="Layer 1"
     inkscape:groupmode="layer"
     id="layer1"
     transform="translate(-157.27051,-597.38791)">
    <circle
       style="fill:url(#linearGradient4157);fill-opacity:1;stroke:none;stroke-width:2.23200011;stroke-linecap:square;stroke-linejoin:round;stroke-miterlimit:4;stroke-dasharray:none;stroke-opacity:1"
       id="path4149"
       cx="232.27051"
       cy="672.38788"
       r="74.989151" />
    <ellipse
       style="fill:#ffffff;fill-opacity:1;stroke:none;stroke-width:2.23200011;stroke-linecap:square;stroke-linejoin:round;stroke-miterlimit:4;stroke-dasharray:none;stroke-opacity:1"
       id="path4727-4"
       cx="254.80411"
       cy="670.82245"
       rx="18.903095"
       ry="18.46349" />
    <ellipse
       style="fill:#ffffff;fill-opacity:1;stroke:none;stroke-width:2.23200011;stroke-linecap:square;stroke-linejoin:round;stroke-miterlimit:4;stroke-dasharray:none;stroke-opacity:1"
       id="path4727"
       cx="209.53201"
       cy="671.10321"
       rx="18.903097"
       ry="18.463491" />
    <path
       id="path4714"
       d="m 225.87136,675.58747 0,-6.39914 q 0,-0.69991 -0.44995,-1.14985 -0.44991,-0.44994 -1.14985,-0.44994 l -9.59871,0 0,-9.59871 q 0,-0.6999 -0.44991,-1.14984 -0.44995,-0.44994 -1.14986,-0.44994 l -6.39913,0 q -0.69991,0 -1.14986,0.44994 -0.44995,0.44994 -0.44995,1.14984 l 0,9.59871 -9.59871,0 q -0.6999,0 -1.14985,0.44994 -0.44991,0.44994 -0.44991,1.14985 l 0,6.39914 q 0,0.69991 0.44991,1.14984 0.44995,0.44994 1.14985,0.44994 l 9.59871,0 0,9.59871 q 0,0.69991 0.44995,1.14985 0.44995,0.44994 1.14986,0.44994 l 6.39913,0 q 0.69991,0 1.14986,-0.44994 0.44991,-0.44994 0.44991,-1.14985 l 0,-9.59871 9.59871,0 q 0.69994,0 1.14985,-0.44994 0.44995,-0.44993 0.44995,-1.14984 z m 28.79613,3.19957 q 0,-2.64964 -1.87476,-4.52439 -1.87472,-1.87475 -4.52438,-1.87475 -2.64966,0 -4.52438,1.87475 -1.87476,1.87475 -1.87476,4.52439 0,2.64964 1.87476,4.52439 1.87472,1.87475 4.52438,1.87475 2.64966,0 4.52438,-1.87475 1.87476,-1.87475 1.87476,-4.52439 z m 12.79827,-12.79828 q 0,-2.64965 -1.87475,-4.52439 -1.87476,-1.87475 -4.52438,-1.87475 -2.64966,0 -4.52439,1.87475 -1.87475,1.87474 -1.87475,4.52439 0,2.64964 1.87475,4.52439 1.87473,1.87475 4.52439,1.87475 2.64962,0 4.52438,-1.87475 1.87475,-1.87475 1.87475,-4.52439 z m 12.79828,6.39914 q 0,10.59857 -7.49899,18.09757 -7.499,7.49899 -18.09756,7.49899 -9.59871,0 -16.89771,-6.39914 l -10.99856,0 q -7.299,6.39914 -16.89771,6.39914 -10.5986,0 -18.09756,-7.49899 -7.49899,-7.499 -7.49899,-18.09757 0,-10.59858 7.49899,-18.09757 7.49896,-7.49899 18.09756,-7.49899 l 44.79398,0 q 10.59856,0 18.09756,7.49899 7.49899,7.49899 7.49899,18.09757 z"
       inkscape:connector-curvature="0"
       style="fill:#464646;fill-opacity:1" />
  </g>
</svg>
