<?xml version="1.0" encoding="UTF-8" standalone="no"?>
<!-- Created with Inkscape (http://www.inkscape.org/) -->

<svg
   xmlns:dc="http://purl.org/dc/elements/1.1/"
   xmlns:cc="http://creativecommons.org/ns#"
   xmlns:rdf="http://www.w3.org/1999/02/22-rdf-syntax-ns#"
   xmlns:svg="http://www.w3.org/2000/svg"
   xmlns="http://www.w3.org/2000/svg"
   xmlns:xlink="http://www.w3.org/1999/xlink"
   xmlns:sodipodi="http://sodipodi.sourceforge.net/DTD/sodipodi-0.dtd"
   xmlns:inkscape="http://www.inkscape.org/namespaces/inkscape"
   id="svg4136"
   version="1.1"
   inkscape:version="0.91 r13725"
   width="150"
   height="150"
   viewBox="0 0 150 150"
   sodipodi:docname="skills.svg">
  <metadata
     id="metadata4142">
    <rdf:RDF>
      <cc:Work
         rdf:about="">
        <dc:format>image/svg+xml</dc:format>
        <dc:type
           rdf:resource="http://purl.org/dc/dcmitype/StillImage" />
        <dc:title />
      </cc:Work>
    </rdf:RDF>
  </metadata>
  <defs
     id="defs4140">
    <linearGradient
       inkscape:collect="always"
       id="linearGradient4165">
      <stop
         style="stop-color:#227daa;stop-opacity:1"
         offset="0"
         id="stop4167" />
      <stop
         style="stop-color:#51cdc7;stop-opacity:1"
         offset="1"
         id="stop4169" />
    </linearGradient>
    <linearGradient
       inkscape:collect="always"
       xlink:href="#linearGradient4165"
       id="linearGradient4171"
       x1="-32.013054"
       y1="565.26007"
       x2="966.86432"
       y2="565.26007"
       gradientUnits="userSpaceOnUse"
       gradientTransform="matrix(0.14816635,0,0,0.14813625,5.7432589,-8.7355104)" />
  </defs>
  <sodipodi:namedview
     pagecolor="#ffffff"
     bordercolor="#666666"
     borderopacity="1"
     objecttolerance="10"
     gridtolerance="10"
     guidetolerance="10"
     inkscape:pageopacity="0"
     inkscape:pageshadow="2"
     inkscape:window-width="958"
     inkscape:window-height="1048"
     id="namedview4138"
     showgrid="false"
     inkscape:zoom="2.097526"
     inkscape:cx="50.760349"
     inkscape:cy="11.868392"
     inkscape:window-x="-7"
     inkscape:window-y="0"
     inkscape:window-maximized="0"
     inkscape:current-layer="svg4136" />
  <path
     style="fill:url(#linearGradient4171);fill-opacity:1"
     d="m 70.923968,148.96629 c -3.152434,-0.23917 -4.865241,-0.41098 -6.593407,-0.66136 C 43.593194,145.30033 25.055073,133.59463 13.397016,116.14348 6.4613272,105.76131 2.4376997,94.419908 1.1868422,81.726643 0.93772248,79.198637 0.93772248,70.774249 1.1868422,68.246242 2.9230817,50.627478 10.29135,34.938082 22.616698,22.615238 33.977069,11.25717 48.520719,3.95408 64.330561,1.6686238 68.076194,1.1271591 70.105058,0.99999802 74.998549,0.99999802 c 4.893466,0 6.922331,0.12716108 10.667966,0.66862578 22.195925,3.2086205 41.708095,16.3288372 53.236645,35.7969602 4.78579,8.081716 8.06321,17.417135 9.42809,26.855049 0.54157,3.744873 0.66875,5.773323 0.66875,10.66581 0,4.892487 -0.12718,6.920937 -0.66875,10.66581 -2.99636,20.719247 -14.71327,39.267957 -32.16733,50.923207 -10.31081,6.88524 -21.696061,10.94179 -34.201558,12.18594 -1.580143,0.15722 -9.684227,0.30763 -11.038394,0.20489 z"
     id="path4186" />
  <path
     style="fill:#ffffff;fill-opacity:1"
     d="m 77.104997,113.50407 c 2.468759,-0.76237 5.001376,-3.24882 5.25807,-5.16221 0.151622,-1.13022 -1.055825,-2.98748 -1.942215,-2.98748 -0.190241,0 -1.638098,0.45559 -3.217468,1.01243 -1.57937,0.55683 -3.641916,1.25458 -4.583436,1.55058 -2.813434,0.88447 -3.274236,1.42867 -2.429659,2.86953 1.496481,2.55304 4.114595,3.58183 6.914708,2.71715 z"
     id="path4184" />
  <path
     style="fill:#ffffff;fill-opacity:1"
     d="m 71.698674,106.18055 c 2.100152,-0.84921 5.68534,-2.25058 7.967113,-3.11416 2.28176,-0.86356 4.304356,-1.64961 4.494673,-1.74677 0.393906,-0.2011 0.765233,-0.83455 0.765233,-1.30544 0,-0.560393 -0.447569,-1.291253 -0.907332,-1.481663 -0.510451,-0.21139 -1.029057,-0.0392 -7.834487,2.600943 -6.726262,2.60944 -9.380211,3.74096 -9.741942,4.15352 -0.816852,0.93158 -0.150214,2.3924 1.108084,2.42819 0.181632,0.005 2.048517,-0.68542 4.148658,-1.53462 z"
     id="path4182" />
  <path
     style="fill:#ffffff;fill-opacity:1"
     d="m 67.219803,102.38274 c 1.603986,-1.09422 6.152412,-2.850293 10.964306,-4.233133 3.115129,-0.89522 5.516082,-1.80089 6.242264,-2.35467 0.99887,-0.76172 0.928783,-2.087632 -0.127815,-2.418283 -0.612398,-0.19164 -6.011314,-1.127145 -8.262848,-1.431758 -2.333916,-0.315759 -6.860751,-0.443615 -8.519566,-0.240632 -1.137511,0.139195 -1.382493,0.219302 -1.666881,0.545044 -0.471993,0.540662 -0.452396,1.386997 0.04292,1.852209 l 0.376267,0.353411 4.10577,0.01077 c 3.522976,0.0092 4.400197,0.05839 6.18009,0.346469 3.325252,0.5382 3.347298,0.59 0.481543,1.1313 -4.809006,0.90836 -7.852328,1.90298 -10.384312,3.39382 -1.583024,0.932083 -1.858521,1.199623 -1.975141,1.918133 -0.189673,1.1686 1.430375,1.88667 2.543435,1.12735 z"
     id="path4180" />
  <path
     style="fill:#000000;fill-opacity:0.63921571"
     d="m 81.964666,75.875262 c -0.144972,0 -0.168689,-0.624496 -0.108264,-2.851625 0.08763,-3.231212 0.176098,-3.660648 1.487162,-7.221642 l 0.790825,-2.147977 0.580828,-0.03985 c 1.28365,-0.0881 2.659192,-0.35583 3.346158,-0.651294 0.878082,-0.377666 1.925069,-1.492387 2.170305,-2.310704 0.256757,-0.856841 0.218403,-2.097854 -0.08345,-2.698434 -0.814162,-1.62016 -2.723492,-1.539724 -5.039807,0.212313 -0.510628,0.386235 -1.231277,1.095759 -1.601453,1.576718 -0.370164,0.480957 -0.728412,0.87447 -0.796106,0.87447 -0.06774,0 -0.270978,-0.119725 -0.45171,-0.266046 l -0.328629,-0.266048 0.386802,-0.459585 c 1.024561,-1.217386 1.269112,-2.896154 0.623729,-4.281899 -0.40867,-0.877472 -1.048367,-1.39034 -1.871925,-1.500779 -0.774767,-0.103895 -1.384278,0.170085 -1.940567,0.872309 -0.648371,0.818483 -1.046899,1.957089 -1.106564,3.161528 l -0.0514,1.036952 -0.972102,-0.01203 c -1.182527,-0.01461 -1.433446,-0.196301 -1.06146,-0.768627 0.854618,-1.314881 0.951069,-2.549531 0.294353,-3.768185 -0.929138,-1.724175 -2.708802,-1.965246 -3.813936,-0.516631 -0.535081,0.701382 -0.881767,2.177895 -0.761308,3.242362 0.12118,1.070621 -0.139871,1.162362 -0.656172,0.23062 -0.714242,-1.288966 -1.506965,-2.33827 -2.040196,-2.700533 -0.590201,-0.400977 -1.459267,-0.494336 -1.984672,-0.213204 -0.487862,0.261043 -0.859759,1.280246 -0.863407,2.366175 -0.0051,1.785824 1.01704,3.139688 2.697913,3.570396 0.427132,0.109446 0.825507,0.318008 0.937825,0.490973 0.107378,0.165387 0.347649,1.000646 0.533901,1.856133 0.307066,1.410402 0.33852,1.935269 0.337329,5.629178 -0.0013,5.466512 -0.370505,8.094936 -1.413187,10.073266 -0.506146,0.960344 -0.519061,1.111378 -0.147253,1.721004 0.772844,1.267151 1.955422,0.517474 2.812865,-1.78317 1.342859,-3.603082 1.735548,-12.131496 0.761067,-16.529095 -0.256352,-1.156882 -0.259556,-1.274198 -0.03925,-1.444327 0.356159,-0.275126 0.558088,-0.235586 1.718151,0.336456 1.262237,0.622427 2.606225,0.869312 4.025743,0.739519 1.010354,-0.09239 1.059485,-0.08112 1.62983,0.373486 0.323451,0.257806 0.838118,0.596789 1.143703,0.75329 0.305597,0.156504 0.555618,0.372512 0.555618,0.48002 0,0.107509 -0.395463,1.293065 -0.878803,2.634566 -1.133068,3.144779 -1.359549,4.382208 -1.47374,8.051959 l -0.09218,2.962725"
     id="path4178" />
  <path
     style="fill:#ffffff;fill-opacity:1"
     d="m 79.221232,76.689995 -1.259415,0.181389 c -0.692677,0.09977 -1.65723,0.223022 -2.143471,0.273908 -0.761056,0.07964 -0.960148,0.168585 -1.430864,0.639214 -1.253881,1.253625 -0.74115,3.446511 0.867077,3.708365 0.307371,0.05004 1.158912,0.03958 1.89235,-0.02324 4.000151,-0.342679 8.042949,-1.785607 11.572853,-4.130502 2.163985,-1.43752 5.09813,-4.353825 6.465758,-6.426442 4.146529,-6.284041 5.4624,-13.54456 3.509702,-19.365154 -0.895327,-2.668722 -2.420033,-4.906481 -5.12486,-7.521579 -2.238289,-2.164046 -4.005027,-3.420278 -6.765391,-4.810534 -3.859457,-1.943803 -7.328264,-2.858227 -11.381775,-3.000377 -6.955443,-0.243921 -11.986879,2.010377 -14.666758,6.571334 -1.416379,2.410575 -1.870397,4.087644 -2.42099,8.942664 -0.525371,4.632607 -0.992877,6.421281 -2.323125,8.888174 -0.780853,1.448063 -1.574184,2.539405 -3.230555,4.444088 -2.266859,2.606679 -2.81689,4.212662 -2.008549,5.86452 0.293459,0.599678 0.635146,1.002499 1.226575,1.446007 2.511819,1.883604 2.559271,1.998606 2.188032,5.302729 -0.295983,2.634356 -0.242983,3.829773 0.225243,5.08098 0.823809,2.201367 2.809959,3.486975 5.39245,3.490456 0.492195,6.46e-4 1.849073,-0.113105 3.015279,-0.252808 1.52619,-0.182834 2.190505,-0.20993 2.370662,-0.0967 0.162408,0.102093 0.281353,0.44059 0.33876,0.964129 0.105065,0.958185 0.416022,1.481787 1.148953,1.934672 0.523734,0.323616 0.700883,0.337142 5.874279,0.448557 2.933854,0.06318 6.134367,0.209696 7.112267,0.32558 2.157705,0.255696 3.317528,0.205747 3.962114,-0.170631 l 5.4e-5,1.5e-5 c 1.598504,-0.933386 1.515413,-3.02412 -0.150772,-3.793668 -0.670682,-0.309759 -0.897405,-0.323854 -5.441171,-0.338229 -3.89861,-0.01241 -5.05533,-0.0653 -6.508075,-0.297979 l -1.766763,-0.282981 -0.414128,-0.801285 c -1.1698,-2.263374 -2.829198,-2.815679 -6.932584,-2.307398 -2.25125,0.278858 -3.312185,0.24441 -3.676027,-0.119359 -0.34447,-0.344402 -0.385317,-1.465338 -0.124928,-3.428516 0.292739,-2.207053 0.295951,-3.191022 0.01392,-4.27347 -0.371875,-1.427429 -0.922543,-2.323948 -2.169751,-3.53244 l -1.16993,-1.133628 0.545509,-0.718079 c 0.300036,-0.394943 1.004041,-1.275901 1.564461,-1.957686 3.281761,-3.992471 4.649466,-7.483334 5.2312,-13.351815 0.565117,-5.700779 1.288317,-7.774727 3.399691,-9.749414 1.115428,-1.043211 2.562349,-1.797634 4.37681,-2.282057 1.08994,-0.290989 1.618321,-0.335966 3.926418,-0.334224 1.975264,0.0015 3.012854,0.07149 4.00048,0.269815 3.320693,0.666883 6.93041,2.201529 9.555513,4.062449 1.873786,1.328322 4.35398,3.805667 5.224869,5.218842 2.490894,4.041983 2.688378,8.452409 0.619121,13.826967 -1.916724,4.978354 -5.532353,8.9357 -10.171518,11.132852 -0.775465,0.367264 -1.493481,0.667756 -1.595566,0.667756"
     id="path4176" />
  <path
     style="fill:url(#linearGradient4171);fill-opacity:1"
     d="m 85.896794,60.926484 c -0.164954,-0.266833 1.722015,-1.665741 1.945495,-1.442301 0.197547,0.197509 -0.182518,0.898197 -0.620843,1.144572 -0.579336,0.325641 -1.218591,0.469316 -1.324652,0.297729 z"
     id="path4163" />
</svg>
